<mxfile host="Electron" modified="2023-10-05T14:43:51.195Z" agent="Mozilla/5.0 (Windows NT 10.0; Win64; x64) AppleWebKit/537.36 (KHTML, like Gecko) draw.io/21.7.5 Chrome/114.0.5735.289 Electron/25.8.1 Safari/537.36" etag="-nryBKUK8UDCmZxAn610" version="21.7.5" type="device">
  <diagram name="Page-1" id="QsWFLF-11UJMXmpPRsqb">
    <mxGraphModel dx="1264" dy="1356" grid="0" gridSize="10" guides="1" tooltips="1" connect="1" arrows="1" fold="1" page="0" pageScale="1" pageWidth="850" pageHeight="1100" math="0" shadow="0">
      <root>
        <mxCell id="0" />
        <mxCell id="1" parent="0" />
        <object label="Diem" MaSV="string" TenSV="string" NgaySinh="DateTime" DiaChi="string" SDT="int" MaLop="Lop" MaTk="TaiKhoan" id="J2x1u3XhuQ61lxwwrDlp-1">
          <mxCell style="swimlane;fontStyle=1;align=center;verticalAlign=middle;childLayout=stackLayout;horizontal=1;startSize=32;horizontalStack=0;resizeParent=1;resizeParentMax=0;resizeLast=0;collapsible=1;marginBottom=0;whiteSpace=wrap;html=1;" vertex="1" parent="1">
            <mxGeometry x="251.5" y="-693" width="161" height="350" as="geometry">
              <mxRectangle x="309" y="-292" width="86" height="26" as="alternateBounds" />
            </mxGeometry>
          </mxCell>
        </object>
        <mxCell id="J2x1u3XhuQ61lxwwrDlp-6" value="+ SinhVien : SinhVien" style="text;html=1;align=left;verticalAlign=middle;resizable=0;points=[];autosize=1;strokeColor=none;fillColor=none;spacingLeft=6;" vertex="1" parent="J2x1u3XhuQ61lxwwrDlp-1">
          <mxGeometry y="32" width="161" height="26" as="geometry" />
        </mxCell>
        <mxCell id="J2x1u3XhuQ61lxwwrDlp-5" value="+ Mon : Mon" style="text;html=1;align=left;verticalAlign=middle;resizable=0;points=[];autosize=1;strokeColor=none;fillColor=none;spacingLeft=6;" vertex="1" parent="J2x1u3XhuQ61lxwwrDlp-1">
          <mxGeometry y="58" width="161" height="26" as="geometry" />
        </mxCell>
        <mxCell id="J2x1u3XhuQ61lxwwrDlp-7" value="+ DiemTX : float" style="text;html=1;align=left;verticalAlign=middle;resizable=0;points=[];autosize=1;strokeColor=none;fillColor=none;spacingLeft=6;" vertex="1" parent="J2x1u3XhuQ61lxwwrDlp-1">
          <mxGeometry y="84" width="161" height="26" as="geometry" />
        </mxCell>
        <mxCell id="J2x1u3XhuQ61lxwwrDlp-9" value="+ DiemKT1 : float" style="text;html=1;align=left;verticalAlign=middle;resizable=0;points=[];autosize=1;strokeColor=none;fillColor=none;spacingLeft=6;" vertex="1" parent="J2x1u3XhuQ61lxwwrDlp-1">
          <mxGeometry y="110" width="161" height="26" as="geometry" />
        </mxCell>
        <mxCell id="J2x1u3XhuQ61lxwwrDlp-10" value="+ DiemKT2 : float" style="text;html=1;align=left;verticalAlign=middle;resizable=0;points=[];autosize=1;strokeColor=none;fillColor=none;spacingLeft=6;" vertex="1" parent="J2x1u3XhuQ61lxwwrDlp-1">
          <mxGeometry y="136" width="161" height="26" as="geometry" />
        </mxCell>
        <mxCell id="J2x1u3XhuQ61lxwwrDlp-11" value="+ DiemThi : float" style="text;html=1;align=left;verticalAlign=middle;resizable=0;points=[];autosize=1;strokeColor=none;fillColor=none;spacingLeft=6;" vertex="1" parent="J2x1u3XhuQ61lxwwrDlp-1">
          <mxGeometry y="162" width="161" height="26" as="geometry" />
        </mxCell>
        <mxCell id="J2x1u3XhuQ61lxwwrDlp-12" value="+ DiemTB : float" style="text;html=1;align=left;verticalAlign=middle;resizable=0;points=[];autosize=1;strokeColor=none;fillColor=none;spacingLeft=6;" vertex="1" parent="J2x1u3XhuQ61lxwwrDlp-1">
          <mxGeometry y="188" width="161" height="26" as="geometry" />
        </mxCell>
        <mxCell id="J2x1u3XhuQ61lxwwrDlp-13" value="+ TrangThai : string" style="text;html=1;align=left;verticalAlign=middle;resizable=0;points=[];autosize=1;strokeColor=none;fillColor=none;spacingLeft=6;" vertex="1" parent="J2x1u3XhuQ61lxwwrDlp-1">
          <mxGeometry y="214" width="161" height="26" as="geometry" />
        </mxCell>
        <mxCell id="J2x1u3XhuQ61lxwwrDlp-83" value="+ GhiChu : string" style="text;html=1;align=left;verticalAlign=middle;resizable=0;points=[];autosize=1;strokeColor=none;fillColor=none;spacingLeft=6;" vertex="1" parent="J2x1u3XhuQ61lxwwrDlp-1">
          <mxGeometry y="240" width="161" height="26" as="geometry" />
        </mxCell>
        <mxCell id="J2x1u3XhuQ61lxwwrDlp-3" value="" style="line;strokeWidth=1;fillColor=none;align=left;verticalAlign=middle;spacingTop=-1;spacingLeft=3;spacingRight=3;rotatable=0;labelPosition=right;points=[];portConstraint=eastwest;strokeColor=inherit;" vertex="1" parent="J2x1u3XhuQ61lxwwrDlp-1">
          <mxGeometry y="266" width="161" height="51" as="geometry" />
        </mxCell>
        <mxCell id="J2x1u3XhuQ61lxwwrDlp-4" value="+ ToString() : void" style="text;strokeColor=none;fillColor=none;align=left;verticalAlign=middle;spacingLeft=4;spacingRight=4;overflow=hidden;rotatable=0;points=[[0,0.5],[1,0.5]];portConstraint=eastwest;whiteSpace=wrap;html=1;" vertex="1" parent="J2x1u3XhuQ61lxwwrDlp-1">
          <mxGeometry y="317" width="161" height="33" as="geometry" />
        </mxCell>
        <mxCell id="J2x1u3XhuQ61lxwwrDlp-14" value="GiaoVien" style="swimlane;fontStyle=1;align=center;verticalAlign=top;childLayout=stackLayout;horizontal=1;startSize=26;horizontalStack=0;resizeParent=1;resizeParentMax=0;resizeLast=0;collapsible=1;marginBottom=0;whiteSpace=wrap;html=1;" vertex="1" collapsed="1" parent="1">
          <mxGeometry x="644" y="-553" width="87" height="26" as="geometry">
            <mxRectangle x="644" y="-553" width="172" height="268" as="alternateBounds" />
          </mxGeometry>
        </mxCell>
        <mxCell id="J2x1u3XhuQ61lxwwrDlp-15" value="+ MaGV : string" style="text;strokeColor=none;fillColor=none;align=left;verticalAlign=top;spacingLeft=4;spacingRight=4;overflow=hidden;rotatable=0;points=[[0,0.5],[1,0.5]];portConstraint=eastwest;whiteSpace=wrap;html=1;" vertex="1" parent="J2x1u3XhuQ61lxwwrDlp-14">
          <mxGeometry y="26" width="172" height="26" as="geometry" />
        </mxCell>
        <mxCell id="J2x1u3XhuQ61lxwwrDlp-18" value="+ TenGV : string" style="text;strokeColor=none;fillColor=none;align=left;verticalAlign=top;spacingLeft=4;spacingRight=4;overflow=hidden;rotatable=0;points=[[0,0.5],[1,0.5]];portConstraint=eastwest;whiteSpace=wrap;html=1;" vertex="1" parent="J2x1u3XhuQ61lxwwrDlp-14">
          <mxGeometry y="52" width="172" height="26" as="geometry" />
        </mxCell>
        <mxCell id="J2x1u3XhuQ61lxwwrDlp-19" value="+ NgaySinh : DateTime" style="text;strokeColor=none;fillColor=none;align=left;verticalAlign=top;spacingLeft=4;spacingRight=4;overflow=hidden;rotatable=0;points=[[0,0.5],[1,0.5]];portConstraint=eastwest;whiteSpace=wrap;html=1;" vertex="1" parent="J2x1u3XhuQ61lxwwrDlp-14">
          <mxGeometry y="78" width="172" height="26" as="geometry" />
        </mxCell>
        <mxCell id="J2x1u3XhuQ61lxwwrDlp-20" value="+ GioiTinh : bool" style="text;strokeColor=none;fillColor=none;align=left;verticalAlign=top;spacingLeft=4;spacingRight=4;overflow=hidden;rotatable=0;points=[[0,0.5],[1,0.5]];portConstraint=eastwest;whiteSpace=wrap;html=1;" vertex="1" parent="J2x1u3XhuQ61lxwwrDlp-14">
          <mxGeometry y="104" width="172" height="26" as="geometry" />
        </mxCell>
        <mxCell id="J2x1u3XhuQ61lxwwrDlp-21" value="+ DiaChi : string" style="text;strokeColor=none;fillColor=none;align=left;verticalAlign=top;spacingLeft=4;spacingRight=4;overflow=hidden;rotatable=0;points=[[0,0.5],[1,0.5]];portConstraint=eastwest;whiteSpace=wrap;html=1;" vertex="1" parent="J2x1u3XhuQ61lxwwrDlp-14">
          <mxGeometry y="130" width="172" height="26" as="geometry" />
        </mxCell>
        <mxCell id="J2x1u3XhuQ61lxwwrDlp-22" value="+ SDT : int" style="text;strokeColor=none;fillColor=none;align=left;verticalAlign=top;spacingLeft=4;spacingRight=4;overflow=hidden;rotatable=0;points=[[0,0.5],[1,0.5]];portConstraint=eastwest;whiteSpace=wrap;html=1;" vertex="1" parent="J2x1u3XhuQ61lxwwrDlp-14">
          <mxGeometry y="156" width="172" height="26" as="geometry" />
        </mxCell>
        <mxCell id="J2x1u3XhuQ61lxwwrDlp-24" value="+ Khoa : Khoa" style="text;strokeColor=none;fillColor=none;align=left;verticalAlign=top;spacingLeft=4;spacingRight=4;overflow=hidden;rotatable=0;points=[[0,0.5],[1,0.5]];portConstraint=eastwest;whiteSpace=wrap;html=1;" vertex="1" parent="J2x1u3XhuQ61lxwwrDlp-14">
          <mxGeometry y="182" width="172" height="26" as="geometry" />
        </mxCell>
        <mxCell id="J2x1u3XhuQ61lxwwrDlp-23" value="+ Tk : TaiKhoan" style="text;html=1;align=left;verticalAlign=middle;resizable=0;points=[];autosize=1;strokeColor=none;fillColor=none;spacingLeft=6;" vertex="1" parent="J2x1u3XhuQ61lxwwrDlp-14">
          <mxGeometry y="208" width="172" height="26" as="geometry" />
        </mxCell>
        <mxCell id="J2x1u3XhuQ61lxwwrDlp-16" value="" style="line;strokeWidth=1;fillColor=none;align=left;verticalAlign=middle;spacingTop=-1;spacingLeft=3;spacingRight=3;rotatable=0;labelPosition=right;points=[];portConstraint=eastwest;strokeColor=inherit;" vertex="1" parent="J2x1u3XhuQ61lxwwrDlp-14">
          <mxGeometry y="234" width="172" height="8" as="geometry" />
        </mxCell>
        <mxCell id="J2x1u3XhuQ61lxwwrDlp-17" value="+ ToString() : void" style="text;strokeColor=none;fillColor=none;align=left;verticalAlign=top;spacingLeft=4;spacingRight=4;overflow=hidden;rotatable=0;points=[[0,0.5],[1,0.5]];portConstraint=eastwest;whiteSpace=wrap;html=1;" vertex="1" parent="J2x1u3XhuQ61lxwwrDlp-14">
          <mxGeometry y="242" width="172" height="26" as="geometry" />
        </mxCell>
        <mxCell id="J2x1u3XhuQ61lxwwrDlp-25" value="Mon" style="swimlane;fontStyle=1;align=center;verticalAlign=top;childLayout=stackLayout;horizontal=1;startSize=26;horizontalStack=0;resizeParent=1;resizeParentMax=0;resizeLast=0;collapsible=1;marginBottom=0;whiteSpace=wrap;html=1;" vertex="1" parent="1">
          <mxGeometry x="32" y="-259" width="172" height="190" as="geometry">
            <mxRectangle x="32" y="-259" width="87" height="26" as="alternateBounds" />
          </mxGeometry>
        </mxCell>
        <mxCell id="J2x1u3XhuQ61lxwwrDlp-26" value="+ MaMon : string" style="text;strokeColor=none;fillColor=none;align=left;verticalAlign=top;spacingLeft=4;spacingRight=4;overflow=hidden;rotatable=0;points=[[0,0.5],[1,0.5]];portConstraint=eastwest;whiteSpace=wrap;html=1;" vertex="1" parent="J2x1u3XhuQ61lxwwrDlp-25">
          <mxGeometry y="26" width="172" height="26" as="geometry" />
        </mxCell>
        <mxCell id="J2x1u3XhuQ61lxwwrDlp-27" value="+ TenMon : string" style="text;strokeColor=none;fillColor=none;align=left;verticalAlign=top;spacingLeft=4;spacingRight=4;overflow=hidden;rotatable=0;points=[[0,0.5],[1,0.5]];portConstraint=eastwest;whiteSpace=wrap;html=1;" vertex="1" parent="J2x1u3XhuQ61lxwwrDlp-25">
          <mxGeometry y="52" width="172" height="26" as="geometry" />
        </mxCell>
        <mxCell id="J2x1u3XhuQ61lxwwrDlp-33" value="+ SoTiet : int" style="text;html=1;align=left;verticalAlign=middle;resizable=0;points=[];autosize=1;strokeColor=none;fillColor=none;spacingLeft=6;" vertex="1" parent="J2x1u3XhuQ61lxwwrDlp-25">
          <mxGeometry y="78" width="172" height="26" as="geometry" />
        </mxCell>
        <mxCell id="J2x1u3XhuQ61lxwwrDlp-82" value="+ SoTinChi : int" style="text;html=1;align=left;verticalAlign=middle;resizable=0;points=[];autosize=1;strokeColor=none;fillColor=none;spacingLeft=6;" vertex="1" parent="J2x1u3XhuQ61lxwwrDlp-25">
          <mxGeometry y="104" width="172" height="26" as="geometry" />
        </mxCell>
        <mxCell id="J2x1u3XhuQ61lxwwrDlp-81" value="+ Loai : Loai(ẹnum)" style="text;html=1;align=left;verticalAlign=middle;resizable=0;points=[];autosize=1;strokeColor=none;fillColor=none;spacingLeft=6;" vertex="1" parent="J2x1u3XhuQ61lxwwrDlp-25">
          <mxGeometry y="130" width="172" height="26" as="geometry" />
        </mxCell>
        <mxCell id="J2x1u3XhuQ61lxwwrDlp-34" value="" style="line;strokeWidth=1;fillColor=none;align=left;verticalAlign=middle;spacingTop=-1;spacingLeft=3;spacingRight=3;rotatable=0;labelPosition=right;points=[];portConstraint=eastwest;strokeColor=inherit;" vertex="1" parent="J2x1u3XhuQ61lxwwrDlp-25">
          <mxGeometry y="156" width="172" height="8" as="geometry" />
        </mxCell>
        <mxCell id="J2x1u3XhuQ61lxwwrDlp-35" value="+ ToString() : void" style="text;strokeColor=none;fillColor=none;align=left;verticalAlign=top;spacingLeft=4;spacingRight=4;overflow=hidden;rotatable=0;points=[[0,0.5],[1,0.5]];portConstraint=eastwest;whiteSpace=wrap;html=1;" vertex="1" parent="J2x1u3XhuQ61lxwwrDlp-25">
          <mxGeometry y="164" width="172" height="26" as="geometry" />
        </mxCell>
        <mxCell id="J2x1u3XhuQ61lxwwrDlp-48" value="TaiKhoan" style="swimlane;fontStyle=1;align=center;verticalAlign=top;childLayout=stackLayout;horizontal=1;startSize=26;horizontalStack=0;resizeParent=1;resizeParentMax=0;resizeLast=0;collapsible=1;marginBottom=0;whiteSpace=wrap;html=1;" vertex="1" parent="1">
          <mxGeometry x="-181" y="-257" width="172" height="164" as="geometry">
            <mxRectangle x="50" y="-168" width="87" height="26" as="alternateBounds" />
          </mxGeometry>
        </mxCell>
        <mxCell id="J2x1u3XhuQ61lxwwrDlp-49" value="+ MaTk : string" style="text;strokeColor=none;fillColor=none;align=left;verticalAlign=top;spacingLeft=4;spacingRight=4;overflow=hidden;rotatable=0;points=[[0,0.5],[1,0.5]];portConstraint=eastwest;whiteSpace=wrap;html=1;" vertex="1" parent="J2x1u3XhuQ61lxwwrDlp-48">
          <mxGeometry y="26" width="172" height="26" as="geometry" />
        </mxCell>
        <mxCell id="J2x1u3XhuQ61lxwwrDlp-50" value="+ TaiKhoan : string" style="text;strokeColor=none;fillColor=none;align=left;verticalAlign=top;spacingLeft=4;spacingRight=4;overflow=hidden;rotatable=0;points=[[0,0.5],[1,0.5]];portConstraint=eastwest;whiteSpace=wrap;html=1;" vertex="1" parent="J2x1u3XhuQ61lxwwrDlp-48">
          <mxGeometry y="52" width="172" height="26" as="geometry" />
        </mxCell>
        <mxCell id="J2x1u3XhuQ61lxwwrDlp-51" value="+ Matkhau : string" style="text;html=1;align=left;verticalAlign=middle;resizable=0;points=[];autosize=1;strokeColor=none;fillColor=none;spacingLeft=6;" vertex="1" parent="J2x1u3XhuQ61lxwwrDlp-48">
          <mxGeometry y="78" width="172" height="26" as="geometry" />
        </mxCell>
        <mxCell id="J2x1u3XhuQ61lxwwrDlp-52" value="+ Phanloai : Loai(enum)" style="text;strokeColor=none;fillColor=none;align=left;verticalAlign=top;spacingLeft=4;spacingRight=4;overflow=hidden;rotatable=0;points=[[0,0.5],[1,0.5]];portConstraint=eastwest;whiteSpace=wrap;html=1;" vertex="1" parent="J2x1u3XhuQ61lxwwrDlp-48">
          <mxGeometry y="104" width="172" height="26" as="geometry" />
        </mxCell>
        <mxCell id="J2x1u3XhuQ61lxwwrDlp-54" value="" style="line;strokeWidth=1;fillColor=none;align=left;verticalAlign=middle;spacingTop=-1;spacingLeft=3;spacingRight=3;rotatable=0;labelPosition=right;points=[];portConstraint=eastwest;strokeColor=inherit;" vertex="1" parent="J2x1u3XhuQ61lxwwrDlp-48">
          <mxGeometry y="130" width="172" height="8" as="geometry" />
        </mxCell>
        <mxCell id="J2x1u3XhuQ61lxwwrDlp-55" value="+ ToString() : void" style="text;strokeColor=none;fillColor=none;align=left;verticalAlign=top;spacingLeft=4;spacingRight=4;overflow=hidden;rotatable=0;points=[[0,0.5],[1,0.5]];portConstraint=eastwest;whiteSpace=wrap;html=1;" vertex="1" parent="J2x1u3XhuQ61lxwwrDlp-48">
          <mxGeometry y="138" width="172" height="26" as="geometry" />
        </mxCell>
        <mxCell id="J2x1u3XhuQ61lxwwrDlp-56" value="Lop" style="swimlane;fontStyle=1;align=center;verticalAlign=top;childLayout=stackLayout;horizontal=1;startSize=26;horizontalStack=0;resizeParent=1;resizeParentMax=0;resizeLast=0;collapsible=1;marginBottom=0;whiteSpace=wrap;html=1;" vertex="1" collapsed="1" parent="1">
          <mxGeometry x="35" y="-696" width="87" height="26" as="geometry">
            <mxRectangle x="35" y="-696" width="172" height="190" as="alternateBounds" />
          </mxGeometry>
        </mxCell>
        <mxCell id="J2x1u3XhuQ61lxwwrDlp-57" value="+ MaLop : string" style="text;strokeColor=none;fillColor=none;align=left;verticalAlign=top;spacingLeft=4;spacingRight=4;overflow=hidden;rotatable=0;points=[[0,0.5],[1,0.5]];portConstraint=eastwest;whiteSpace=wrap;html=1;" vertex="1" parent="J2x1u3XhuQ61lxwwrDlp-56">
          <mxGeometry y="26" width="172" height="26" as="geometry" />
        </mxCell>
        <mxCell id="J2x1u3XhuQ61lxwwrDlp-58" value="+ TenLop : string" style="text;strokeColor=none;fillColor=none;align=left;verticalAlign=top;spacingLeft=4;spacingRight=4;overflow=hidden;rotatable=0;points=[[0,0.5],[1,0.5]];portConstraint=eastwest;whiteSpace=wrap;html=1;" vertex="1" parent="J2x1u3XhuQ61lxwwrDlp-56">
          <mxGeometry y="52" width="172" height="26" as="geometry" />
        </mxCell>
        <mxCell id="J2x1u3XhuQ61lxwwrDlp-59" value="+ SoSV : int" style="text;html=1;align=left;verticalAlign=middle;resizable=0;points=[];autosize=1;strokeColor=none;fillColor=none;spacingLeft=6;" vertex="1" parent="J2x1u3XhuQ61lxwwrDlp-56">
          <mxGeometry y="78" width="172" height="26" as="geometry" />
        </mxCell>
        <mxCell id="J2x1u3XhuQ61lxwwrDlp-60" value="+ Khoa : Khoa" style="text;strokeColor=none;fillColor=none;align=left;verticalAlign=top;spacingLeft=4;spacingRight=4;overflow=hidden;rotatable=0;points=[[0,0.5],[1,0.5]];portConstraint=eastwest;whiteSpace=wrap;html=1;" vertex="1" parent="J2x1u3XhuQ61lxwwrDlp-56">
          <mxGeometry y="104" width="172" height="26" as="geometry" />
        </mxCell>
        <mxCell id="J2x1u3XhuQ61lxwwrDlp-61" value="+ GiaoVien : GiaoVien" style="text;html=1;align=left;verticalAlign=middle;resizable=0;points=[];autosize=1;strokeColor=none;fillColor=none;spacingLeft=6;" vertex="1" parent="J2x1u3XhuQ61lxwwrDlp-56">
          <mxGeometry y="130" width="172" height="26" as="geometry" />
        </mxCell>
        <mxCell id="J2x1u3XhuQ61lxwwrDlp-62" value="" style="line;strokeWidth=1;fillColor=none;align=left;verticalAlign=middle;spacingTop=-1;spacingLeft=3;spacingRight=3;rotatable=0;labelPosition=right;points=[];portConstraint=eastwest;strokeColor=inherit;" vertex="1" parent="J2x1u3XhuQ61lxwwrDlp-56">
          <mxGeometry y="156" width="172" height="8" as="geometry" />
        </mxCell>
        <mxCell id="J2x1u3XhuQ61lxwwrDlp-63" value="+ ToString() : void" style="text;strokeColor=none;fillColor=none;align=left;verticalAlign=top;spacingLeft=4;spacingRight=4;overflow=hidden;rotatable=0;points=[[0,0.5],[1,0.5]];portConstraint=eastwest;whiteSpace=wrap;html=1;" vertex="1" parent="J2x1u3XhuQ61lxwwrDlp-56">
          <mxGeometry y="164" width="172" height="26" as="geometry" />
        </mxCell>
        <object label="SinhVien" MaSV="string" TenSV="string" NgaySinh="DateTime" DiaChi="string" SDT="int" MaLop="Lop" MaTk="TaiKhoan" id="J2x1u3XhuQ61lxwwrDlp-64">
          <mxCell style="swimlane;fontStyle=1;align=center;verticalAlign=middle;childLayout=stackLayout;horizontal=1;startSize=32;horizontalStack=0;resizeParent=1;resizeParentMax=0;resizeLast=0;collapsible=1;marginBottom=0;whiteSpace=wrap;html=1;" vertex="1" parent="1">
            <mxGeometry x="456" y="-693" width="161" height="324" as="geometry">
              <mxRectangle x="61" y="-301" width="86" height="26" as="alternateBounds" />
            </mxGeometry>
          </mxCell>
        </object>
        <mxCell id="J2x1u3XhuQ61lxwwrDlp-65" value="+ MaSV : string" style="text;html=1;align=left;verticalAlign=middle;resizable=0;points=[];autosize=1;strokeColor=none;fillColor=none;spacingLeft=6;" vertex="1" parent="J2x1u3XhuQ61lxwwrDlp-64">
          <mxGeometry y="32" width="161" height="26" as="geometry" />
        </mxCell>
        <mxCell id="J2x1u3XhuQ61lxwwrDlp-66" value="+ TenSV : string" style="text;html=1;align=left;verticalAlign=middle;resizable=0;points=[];autosize=1;strokeColor=none;fillColor=none;spacingLeft=6;" vertex="1" parent="J2x1u3XhuQ61lxwwrDlp-64">
          <mxGeometry y="58" width="161" height="26" as="geometry" />
        </mxCell>
        <mxCell id="J2x1u3XhuQ61lxwwrDlp-67" value="+ NgaySinh : DateTime" style="text;html=1;align=left;verticalAlign=middle;resizable=0;points=[];autosize=1;strokeColor=none;fillColor=none;spacingLeft=6;" vertex="1" parent="J2x1u3XhuQ61lxwwrDlp-64">
          <mxGeometry y="84" width="161" height="26" as="geometry" />
        </mxCell>
        <mxCell id="J2x1u3XhuQ61lxwwrDlp-68" value="+ GioiTinn : bool" style="text;html=1;align=left;verticalAlign=middle;resizable=0;points=[];autosize=1;strokeColor=none;fillColor=none;spacingLeft=6;" vertex="1" parent="J2x1u3XhuQ61lxwwrDlp-64">
          <mxGeometry y="110" width="161" height="26" as="geometry" />
        </mxCell>
        <mxCell id="J2x1u3XhuQ61lxwwrDlp-69" value="+ DiaChi :string" style="text;html=1;align=left;verticalAlign=middle;resizable=0;points=[];autosize=1;strokeColor=none;fillColor=none;spacingLeft=6;" vertex="1" parent="J2x1u3XhuQ61lxwwrDlp-64">
          <mxGeometry y="136" width="161" height="26" as="geometry" />
        </mxCell>
        <mxCell id="J2x1u3XhuQ61lxwwrDlp-70" value="+ SDT : int" style="text;html=1;align=left;verticalAlign=middle;resizable=0;points=[];autosize=1;strokeColor=none;fillColor=none;spacingLeft=6;" vertex="1" parent="J2x1u3XhuQ61lxwwrDlp-64">
          <mxGeometry y="162" width="161" height="26" as="geometry" />
        </mxCell>
        <mxCell id="J2x1u3XhuQ61lxwwrDlp-71" value="+ Lop : Lop" style="text;html=1;align=left;verticalAlign=middle;resizable=0;points=[];autosize=1;strokeColor=none;fillColor=none;spacingLeft=6;" vertex="1" parent="J2x1u3XhuQ61lxwwrDlp-64">
          <mxGeometry y="188" width="161" height="26" as="geometry" />
        </mxCell>
        <mxCell id="J2x1u3XhuQ61lxwwrDlp-72" value="+ Tk : TaiKhoan" style="text;html=1;align=left;verticalAlign=middle;resizable=0;points=[];autosize=1;strokeColor=none;fillColor=none;spacingLeft=6;" vertex="1" parent="J2x1u3XhuQ61lxwwrDlp-64">
          <mxGeometry y="214" width="161" height="26" as="geometry" />
        </mxCell>
        <mxCell id="J2x1u3XhuQ61lxwwrDlp-73" value="" style="line;strokeWidth=1;fillColor=none;align=left;verticalAlign=middle;spacingTop=-1;spacingLeft=3;spacingRight=3;rotatable=0;labelPosition=right;points=[];portConstraint=eastwest;strokeColor=inherit;" vertex="1" parent="J2x1u3XhuQ61lxwwrDlp-64">
          <mxGeometry y="240" width="161" height="51" as="geometry" />
        </mxCell>
        <mxCell id="J2x1u3XhuQ61lxwwrDlp-74" value="+ ToString() : void" style="text;strokeColor=none;fillColor=none;align=left;verticalAlign=middle;spacingLeft=4;spacingRight=4;overflow=hidden;rotatable=0;points=[[0,0.5],[1,0.5]];portConstraint=eastwest;whiteSpace=wrap;html=1;" vertex="1" parent="J2x1u3XhuQ61lxwwrDlp-64">
          <mxGeometry y="291" width="161" height="33" as="geometry" />
        </mxCell>
        <mxCell id="J2x1u3XhuQ61lxwwrDlp-75" value="Khoa" style="swimlane;fontStyle=1;align=center;verticalAlign=top;childLayout=stackLayout;horizontal=1;startSize=26;horizontalStack=0;resizeParent=1;resizeParentMax=0;resizeLast=0;collapsible=1;marginBottom=0;whiteSpace=wrap;html=1;" vertex="1" collapsed="1" parent="1">
          <mxGeometry x="-218" y="-696" width="87" height="26" as="geometry">
            <mxRectangle x="-218" y="-696" width="172" height="112" as="alternateBounds" />
          </mxGeometry>
        </mxCell>
        <mxCell id="J2x1u3XhuQ61lxwwrDlp-76" value="+ MaKhoa : string" style="text;strokeColor=none;fillColor=none;align=left;verticalAlign=top;spacingLeft=4;spacingRight=4;overflow=hidden;rotatable=0;points=[[0,0.5],[1,0.5]];portConstraint=eastwest;whiteSpace=wrap;html=1;" vertex="1" parent="J2x1u3XhuQ61lxwwrDlp-75">
          <mxGeometry y="26" width="172" height="26" as="geometry" />
        </mxCell>
        <mxCell id="J2x1u3XhuQ61lxwwrDlp-77" value="+ TenKhoa : string" style="text;strokeColor=none;fillColor=none;align=left;verticalAlign=top;spacingLeft=4;spacingRight=4;overflow=hidden;rotatable=0;points=[[0,0.5],[1,0.5]];portConstraint=eastwest;whiteSpace=wrap;html=1;" vertex="1" parent="J2x1u3XhuQ61lxwwrDlp-75">
          <mxGeometry y="52" width="172" height="26" as="geometry" />
        </mxCell>
        <mxCell id="J2x1u3XhuQ61lxwwrDlp-79" value="" style="line;strokeWidth=1;fillColor=none;align=left;verticalAlign=middle;spacingTop=-1;spacingLeft=3;spacingRight=3;rotatable=0;labelPosition=right;points=[];portConstraint=eastwest;strokeColor=inherit;" vertex="1" parent="J2x1u3XhuQ61lxwwrDlp-75">
          <mxGeometry y="78" width="172" height="8" as="geometry" />
        </mxCell>
        <mxCell id="J2x1u3XhuQ61lxwwrDlp-80" value="+ ToString() : void" style="text;strokeColor=none;fillColor=none;align=left;verticalAlign=top;spacingLeft=4;spacingRight=4;overflow=hidden;rotatable=0;points=[[0,0.5],[1,0.5]];portConstraint=eastwest;whiteSpace=wrap;html=1;" vertex="1" parent="J2x1u3XhuQ61lxwwrDlp-75">
          <mxGeometry y="86" width="172" height="26" as="geometry" />
        </mxCell>
        <mxCell id="J2x1u3XhuQ61lxwwrDlp-84" value="PhanCong" style="swimlane;fontStyle=1;align=center;verticalAlign=top;childLayout=stackLayout;horizontal=1;startSize=26;horizontalStack=0;resizeParent=1;resizeParentMax=0;resizeLast=0;collapsible=1;marginBottom=0;whiteSpace=wrap;html=1;" vertex="1" parent="1">
          <mxGeometry x="-181" y="-56" width="172" height="190" as="geometry">
            <mxRectangle x="410" y="-127" width="87" height="26" as="alternateBounds" />
          </mxGeometry>
        </mxCell>
        <mxCell id="J2x1u3XhuQ61lxwwrDlp-85" value="+GiaoVien :GiaoVien" style="text;strokeColor=none;fillColor=none;align=left;verticalAlign=top;spacingLeft=4;spacingRight=4;overflow=hidden;rotatable=0;points=[[0,0.5],[1,0.5]];portConstraint=eastwest;whiteSpace=wrap;html=1;" vertex="1" parent="J2x1u3XhuQ61lxwwrDlp-84">
          <mxGeometry y="26" width="172" height="26" as="geometry" />
        </mxCell>
        <mxCell id="J2x1u3XhuQ61lxwwrDlp-86" value="+Lop : Lop" style="text;strokeColor=none;fillColor=none;align=left;verticalAlign=top;spacingLeft=4;spacingRight=4;overflow=hidden;rotatable=0;points=[[0,0.5],[1,0.5]];portConstraint=eastwest;whiteSpace=wrap;html=1;" vertex="1" parent="J2x1u3XhuQ61lxwwrDlp-84">
          <mxGeometry y="52" width="172" height="26" as="geometry" />
        </mxCell>
        <mxCell id="J2x1u3XhuQ61lxwwrDlp-87" value="+Mon : Mon" style="text;strokeColor=none;fillColor=none;align=left;verticalAlign=top;spacingLeft=4;spacingRight=4;overflow=hidden;rotatable=0;points=[[0,0.5],[1,0.5]];portConstraint=eastwest;whiteSpace=wrap;html=1;" vertex="1" parent="J2x1u3XhuQ61lxwwrDlp-84">
          <mxGeometry y="78" width="172" height="26" as="geometry" />
        </mxCell>
        <mxCell id="J2x1u3XhuQ61lxwwrDlp-88" value="+ HocKi : bool" style="text;strokeColor=none;fillColor=none;align=left;verticalAlign=top;spacingLeft=4;spacingRight=4;overflow=hidden;rotatable=0;points=[[0,0.5],[1,0.5]];portConstraint=eastwest;whiteSpace=wrap;html=1;" vertex="1" parent="J2x1u3XhuQ61lxwwrDlp-84">
          <mxGeometry y="104" width="172" height="26" as="geometry" />
        </mxCell>
        <mxCell id="J2x1u3XhuQ61lxwwrDlp-89" value="+ NamHoc : DateTime" style="text;strokeColor=none;fillColor=none;align=left;verticalAlign=top;spacingLeft=4;spacingRight=4;overflow=hidden;rotatable=0;points=[[0,0.5],[1,0.5]];portConstraint=eastwest;whiteSpace=wrap;html=1;" vertex="1" parent="J2x1u3XhuQ61lxwwrDlp-84">
          <mxGeometry y="130" width="172" height="26" as="geometry" />
        </mxCell>
        <mxCell id="J2x1u3XhuQ61lxwwrDlp-93" value="" style="line;strokeWidth=1;fillColor=none;align=left;verticalAlign=middle;spacingTop=-1;spacingLeft=3;spacingRight=3;rotatable=0;labelPosition=right;points=[];portConstraint=eastwest;strokeColor=inherit;" vertex="1" parent="J2x1u3XhuQ61lxwwrDlp-84">
          <mxGeometry y="156" width="172" height="8" as="geometry" />
        </mxCell>
        <mxCell id="J2x1u3XhuQ61lxwwrDlp-94" value="+ ToString() : void" style="text;strokeColor=none;fillColor=none;align=left;verticalAlign=top;spacingLeft=4;spacingRight=4;overflow=hidden;rotatable=0;points=[[0,0.5],[1,0.5]];portConstraint=eastwest;whiteSpace=wrap;html=1;" vertex="1" parent="J2x1u3XhuQ61lxwwrDlp-84">
          <mxGeometry y="164" width="172" height="26" as="geometry" />
        </mxCell>
        <mxCell id="J2x1u3XhuQ61lxwwrDlp-95" value="&lt;p style=&quot;margin:0px;margin-top:4px;text-align:center;&quot;&gt;&lt;i&gt;&amp;lt;&amp;lt;Interface&amp;gt;&amp;gt;&lt;/i&gt;&lt;br&gt;&lt;b&gt;IKetNoi&lt;/b&gt;&lt;/p&gt;&lt;hr size=&quot;1&quot;&gt;&lt;p style=&quot;margin:0px;margin-left:4px;&quot;&gt;+ TruyVan(string) : List&amp;lt;T&amp;gt;&amp;nbsp;&lt;br&gt;+ ThucThi(string): void&lt;/p&gt;" style="verticalAlign=top;align=left;overflow=fill;fontSize=12;fontFamily=Helvetica;html=1;whiteSpace=wrap;strokeColor=default;gradientColor=none;fillColor=default;" vertex="1" parent="1">
          <mxGeometry x="236" y="-11.5" width="192" height="101" as="geometry" />
        </mxCell>
        <mxCell id="J2x1u3XhuQ61lxwwrDlp-108" value="&lt;p style=&quot;margin:0px;margin-top:4px;text-align:center;&quot;&gt;&lt;b&gt;KetNoi&lt;/b&gt;&lt;/p&gt;&lt;hr size=&quot;1&quot;&gt;&lt;p style=&quot;margin:0px;margin-left:4px;&quot;&gt;- khoa : string&lt;/p&gt;&lt;p style=&quot;margin:0px;margin-left:4px;&quot;&gt;- connec :SqlConnection&lt;/p&gt;&lt;p style=&quot;margin:0px;margin-left:4px;&quot;&gt;+(static) obj :KetNoi&lt;/p&gt;&lt;p style=&quot;margin:0px;margin-left:4px;&quot;&gt;&lt;br&gt;&lt;/p&gt;&lt;hr size=&quot;1&quot;&gt;&lt;p style=&quot;margin:0px;margin-left:4px;&quot;&gt;+ TruyVan(string) : List&amp;lt;T&amp;gt;&lt;/p&gt;&lt;p style=&quot;margin:0px;margin-left:4px;&quot;&gt;+ ThucThi(string) : void&lt;/p&gt;&lt;p style=&quot;margin:0px;margin-left:4px;&quot;&gt;+(static) LayKetNoi() : KetNoi&lt;/p&gt;" style="verticalAlign=top;align=left;overflow=fill;fontSize=12;fontFamily=Helvetica;html=1;whiteSpace=wrap;" vertex="1" parent="1">
          <mxGeometry x="240" y="228" width="160" height="169" as="geometry" />
        </mxCell>
        <mxCell id="J2x1u3XhuQ61lxwwrDlp-109" value="" style="endArrow=block;dashed=1;endFill=0;endSize=12;html=1;rounded=0;" edge="1" parent="1" source="J2x1u3XhuQ61lxwwrDlp-108" target="J2x1u3XhuQ61lxwwrDlp-95">
          <mxGeometry width="160" relative="1" as="geometry">
            <mxPoint x="207" y="173" as="sourcePoint" />
            <mxPoint x="367" y="173" as="targetPoint" />
          </mxGeometry>
        </mxCell>
        <mxCell id="J2x1u3XhuQ61lxwwrDlp-112" value="" style="endArrow=diamondThin;endFill=1;endSize=24;html=1;rounded=0;" edge="1" parent="1" source="J2x1u3XhuQ61lxwwrDlp-56" target="J2x1u3XhuQ61lxwwrDlp-75">
          <mxGeometry width="160" relative="1" as="geometry">
            <mxPoint x="-43" y="-528" as="sourcePoint" />
            <mxPoint x="117" y="-528" as="targetPoint" />
          </mxGeometry>
        </mxCell>
        <mxCell id="J2x1u3XhuQ61lxwwrDlp-113" value="1...n" style="text;html=1;align=center;verticalAlign=middle;resizable=0;points=[];autosize=1;strokeColor=none;fillColor=none;" vertex="1" parent="1">
          <mxGeometry x="-12" y="-711" width="41" height="26" as="geometry" />
        </mxCell>
      </root>
    </mxGraphModel>
  </diagram>
</mxfile>
